<?xml version="1.0" ?><svg xmlns="http://www.w3.org/2000/svg" xmlns:xlink="http://www.w3.org/1999/xlink" version="1.1" viewBox="0 0 512 512" style="enable-background:new 0 0 512 512;" xml:space="preserve"><g id="_x34_7_x2C__Dollar_x2C__Economy_x2C__Hand_x2C__Money_x2C__Hands_x2C__Casino_Chip_x2C__Business_and_Finance_x2C__Gambler_x2C_"><g><path style="fill:#FFFFFF;" d="M327.707,367.67l122.59-74.6c15.74-9.72,36.38-4.84,46.1,10.9c9.73,15.75,4.86,36.38-10.89,46.1    l-222.47,129.98c-1.01,0.62-2.17,0.95-3.35,0.95c-11.72,0-187.35,0-199.1,0l-6.523-69.2l6.523-90.09    c24.85-14.38,56.25-14.49,81.55,0.91c9.23,5.62,19.92,8.38,30.73,8.38h132.15c13.7,0,25.29,10.79,25.57,24.49    C330.677,359.89,329.627,364.04,327.707,367.67z"/><circle style="fill:#FFFFFF;" cx="255.997" cy="151" r="140"/><polygon style="fill:#9DCAFC;" points="60.587,481 60.587,501 10.587,501 10.587,291 60.587,291 60.587,321.71   "/><circle style="fill:#9DCAFC;" cx="255.997" cy="151" r="100"/><g><path style="fill:#4269A7;" d="M504.905,298.715c-12.683-20.535-39.512-26.722-59.807-14.188l-105.32,64.09     C336.297,332.894,321.927,321,305.018,321H172.867c-9.272,0-18.101-2.393-25.532-6.918c-23.34-14.215-51.539-16.886-76.748-7.947     V291c0-5.522-4.477-10-10-10h-50c-5.523,0-10,4.478-10,10v210c0,5.522,4.477,10,10,10h50c5.523,0,10-4.478,10-10v-10h189.099     c2.983,0,5.908-0.815,8.468-2.358l222.397-129.937C510.397,346.965,517.993,319.901,504.905,298.715z M20.587,491V301h30     c0,16.201,0,181.827,0,190H20.587z M480.348,341.502L258.702,471H70.587V327.749c21.171-10.074,46.109-8.91,66.344,3.415     c10.566,6.435,22.992,9.836,35.935,9.836h132.151c8.421,0,15.404,6.589,15.566,14.688c0.169,8.427-6.582,15.312-14.997,15.312     h-75c-5.523,0-10,4.478-10,10s4.477,10,10,10h75c12.403,0,23.247-6.42,29.461-16.092l120.503-73.33     c11.053-6.824,25.514-3.401,32.338,7.647C494.708,320.265,491.318,334.662,480.348,341.502z"/><path style="fill:#4269A7;" d="M255.997,301c82.71,0,150-67.29,150-150s-67.29-150-150-150s-150,67.29-150,150     S173.286,301,255.997,301z M255.997,21c71.682,0,130,58.317,130,130s-58.318,130-130,130s-130-58.317-130-130     S184.315,21,255.997,21z"/><path style="fill:#4269A7;" d="M255.997,261c60.654,0,110-49.346,110-110s-49.346-110-110-110s-110,49.346-110,110     S195.343,261,255.997,261z M255.997,61c49.626,0,90,40.374,90,90s-40.374,90-90,90s-90-40.374-90-90S206.371,61,255.997,61z"/><path style="fill:#4269A7;" d="M259.532,168.678c1.653,1.652,2.563,3.85,2.563,6.188c0,7.713-9.399,11.727-14.937,6.187     c-3.905-3.904-10.237-3.904-14.143,0c-3.905,3.905-3.905,10.237,0,14.143c3.73,3.73,8.228,6.214,12.981,7.468V211     c0,5.522,4.477,10,10,10c5.523,0,10-4.478,10-10v-10.316c17.68-8.676,21.634-32.19,7.678-46.149l-21.213-21.213     c-1.653-1.652-2.563-3.85-2.563-6.188c0-7.803,9.469-11.657,14.937-6.187c3.905,3.904,10.237,3.904,14.143,0     c3.905-3.905,3.905-10.237,0-14.143c-3.73-3.73-8.228-6.214-12.981-7.468V91c0-5.522-4.477-10-10-10c-5.523,0-10,4.478-10,10     v10.316c-17.68,8.676-21.634,32.19-7.678,46.149L259.532,168.678z"/></g></g></g><g id="Layer_1"/></svg>